<svg width="16" height="12" viewBox="0 0 16 12" fill="none" xmlns="http://www.w3.org/2000/svg">
<path d="M8 0.666504C12.05 0.666504 15.3333 2.45717 15.3333 4.6665V7.33317C15.3333 9.5425 12.05 11.3332 8 11.3332C4.022 11.3332 0.783997 9.60584 0.669997 7.45117L0.666664 7.33317V4.6665C0.666664 2.45717 3.95 0.666504 8 0.666504ZM8 8.6665C5.52 8.6665 3.32666 7.99517 2 6.9665V7.33317C2 8.58784 4.58866 9.99984 8 9.99984C11.34 9.99984 13.892 8.6465 13.9967 7.41184L14 7.33317L14.0007 6.9665C12.674 7.9945 10.4807 8.6665 8 8.6665ZM8 1.99984C4.58866 1.99984 2 3.41184 2 4.6665C2 5.92117 4.58866 7.33317 8 7.33317C11.4113 7.33317 14 5.92117 14 4.6665C14 3.41184 11.4113 1.99984 8 1.99984Z" fill="#FFA001"/>
</svg>
