<svg width="24" height="24" fill="none" xmlns="http://www.w3.org/2000/svg">
  <circle cx="12" cy="12" r="11.025" stroke="#5856EB" stroke-width="1.95"/>
  <path fill-rule="evenodd" clip-rule="evenodd" d="M7.58 8.41a1.583 1.583 0 0 0-2.73 1.605l3.188 5.42a1.582 1.582 0 0 0 2.715.023l1.913-3.136 1.774 3.098a1.582 1.582 0 1 0 2.747-1.573l-3.105-5.42a1.582 1.582 0 0 0-2.724-.038l-1.93 3.165L7.578 8.41Zm12.113.802a1.349 1.349 0 1 1-2.697 0 1.349 1.349 0 0 1 2.697 0Z" fill="#5856EB"/>
  <path fill-rule="evenodd" clip-rule="evenodd" d="M7.465 8.48a1.45 1.45 0 1 0-2.501 1.47l3.187 5.42a1.451 1.451 0 0 0 2.489.02l2.029-3.325 1.885 3.291a1.45 1.45 0 0 0 2.518-1.442l-3.105-5.42a1.45 1.45 0 0 0-2.497-.035l-2.045 3.353-1.96-3.333Zm-2.12-.743a1.714 1.714 0 0 1 2.347.609l1.737 2.953 1.816-2.977a1.714 1.714 0 0 1 2.951.04l3.104 5.421a1.714 1.714 0 1 1-2.975 1.704l-1.663-2.904-1.797 2.945a1.714 1.714 0 0 1-2.941-.024l-3.188-5.42a1.714 1.714 0 0 1 .61-2.347Zm11.518 1.477a1.48 1.48 0 1 1 2.96 0 1.48 1.48 0 0 1-2.96 0Zm1.48-1.217a1.217 1.217 0 1 0 0 2.434 1.217 1.217 0 0 0 0-2.434Z" fill="#5856EB"/>
</svg>
